<?xml version="1.0" encoding="utf-8"?>
<!-- Generator: Adobe Illustrator 24.0.2, SVG Export Plug-In . SVG Version: 6.00 Build 0)  -->
<svg version="1.1" id="_x32_71e5882-3c8d-41ed-8a0a-1cb2b4d0cbc1"
	 xmlns="http://www.w3.org/2000/svg" xmlns:xlink="http://www.w3.org/1999/xlink" x="0px" y="0px" viewBox="0 0 1137.7 859.7"
	 style="enable-background:new 0 0 1137.7 859.7;" xml:space="preserve">
<style type="text/css">
	.st0{opacity:0.62;fill:#FFFFFF;}
	.st1{opacity:0.14;fill:#E4EBF7;}
	.st2{fill:url(#SVGID_1_);}
	.st3{fill:#FAFCFF;stroke:#0C6BF4;stroke-width:1.1813;stroke-miterlimit:10;}
	.st4{opacity:0.47;fill:#3150BC;}
	.st5{fill:#BAC1CC;}
	.st6{fill:#EDF1F9;}
	.st7{fill:#F4D242;}
	.st8{fill:#FEB19E;}
	.st9{fill:#593131;}
	.st10{fill:#754343;}
	.st11{fill:url(#SVGID_2_);}
	.st12{fill:#9EB2EF;}
	.st13{fill:#23406D;}
	.st14{fill:#A8AFBA;}
	.st15{fill:url(#SVGID_3_);}
	.st16{fill:#A1A7AF;}
	.st17{fill:url(#SVGID_4_);}
	.st18{fill:#F49D8C;}
	.st19{fill:url(#SVGID_5_);}
	.st20{fill:#FFFFFF;}
	.st21{fill:#383838;}
	.st22{fill:#838689;}
	.st23{fill:url(#SVGID_6_);}
	.st24{fill:#EFA245;}
	.st25{fill:#1B3151;}
	.st26{fill:url(#SVGID_7_);}
	.st27{fill:url(#SVGID_8_);}
	.st28{fill:#38659B;}
	.st29{fill:url(#SVGID_9_);}
	.st30{fill:url(#SVGID_10_);}
	.st31{fill:#3150BC;}
	.st32{fill:#A9D0FF;}
	.st33{fill:url(#SVGID_11_);}
	.st34{fill:#FF856A;}
	.st35{fill:#E1E7F4;}
	.st36{fill:#F8FBFF;}
	.st37{fill:url(#SVGID_12_);}
</style>
<title>team spirit</title>
<g>
	<g>
		<g>
			<path class="st0" d="M650.7,605.3c0,0-0.1,0-0.1,0c-2-0.4-4-0.8-5.9-1.1c-13.8-33.3-33.8-66.7-61.1-78.9
				c-18.6-8.3-39.1-5.7-60.7,7.7c-63.5,39.3-112.6,61.4-145.7,41.6c-31.6-18.9-44-76.2-38-175.3c3.8-62.8-4.7-112.5-25.3-148.2
				c0.8-1.9,1.6-3.8,2.3-5.7c22.6,36.8,31.9,88.5,27.9,154.2c-5.9,97.1,5.8,152.9,35.6,170.8c32.7,19.6,86.9-8.4,140.5-41.6
				c23.1-14.3,45.1-17,65.3-8C615.3,534,636.5,570.2,650.7,605.3z"/>
			<path class="st0" d="M509.9,637.4c-1.5,0.8-3,1.6-4.6,2.3c-3.2-10.9-8.6-21.4-17.4-28.3c-12.7-10.1-30.8-11.3-53.8-3.8
				c-50.8,16.8-89.6,15.2-115.3-4.7c-28.7-22.3-41-67.7-36.4-135c3.3-49.2-9.8-84.6-27.2-109.6c0.8-1.7,1.6-3.4,2.4-5.1
				c18.8,25.9,33.3,63,29.7,115.1C283,533.8,294.6,577.8,322,599c24.3,18.8,61.5,20.2,110.7,3.9c24.7-8.2,44.3-6.6,58.4,4.6
				C500.5,615.1,506.4,626,509.9,637.4z"/>
			<path class="st0" d="M739.8,426.4c-8.3,63.2,1.2,112.4,28.3,146.1c9.3,11.6,19.7,20.1,29.8,26.3c-1.9,0.8-3.8,1.6-5.8,2.3
				c0,0,0,0,0,0c-9.4-6.3-19.1-14.5-27.8-25.4c-28.1-34.9-37.9-85.3-29.4-150c11.1-83.9,46-134.1,77.1-163c1.6,0.7,3.2,1.5,4.8,2.3
				C786,293,750.9,342.5,739.8,426.4z"/>
			<path class="st0" d="M811.5,447.8c-7.1,48-1.2,84.1,17.8,107.4c4.9,6.1,10.3,10.6,15.6,14.1c-1.3,1.2-2.6,2.3-3.9,3.4
				c-5.2-3.6-10.6-8.3-15.5-14.4c-19.9-24.4-26.2-61.8-18.8-111.2c7.5-50.2,39-86.2,91.5-104.8c0.7,1.5,1.4,3,2.1,4.5
				C848.6,364.8,818.8,398.7,811.5,447.8z"/>
			<path class="st0" d="M909.8,423.9c-0.2,1.9-0.4,3.8-0.6,5.8v0c-10.4,5.2-18.2,12.6-23.2,22.2c-10.2,19.6-7.4,45.1-2.1,65.6
				c0,0,0,0,0,0c-1.1,2.2-2.3,4.3-3.5,6.5c-6.3-22-10.6-51.5,1.2-74.3C887.6,438.2,897,429.6,909.8,423.9z"/>
			<path class="st0" d="M683.4,237c-2.6,11.8-6.4,25-11.9,38.2c-20,48.6-53.2,74.1-96.1,74.1c-1.7,0-3.4,0-5.1-0.1
				c-58.4-2.7-92-93.8-124.5-181.9c-15.9-43.2-31.4-85-48.9-114.4c1.4-0.9,2.8-1.7,4.2-2.4c17.9,29.9,33.3,71.9,49.3,115.1
				c31.9,86.6,65,176.2,120.2,178.7c69.9,3.2,97.2-62.7,107.7-107.1C679.9,237.1,681.6,237.1,683.4,237z"/>
			<path class="st0" d="M598,182c-4.2,0.8-8.9,1.3-13.8,1.3c-10.3,0-21.9-2.2-33.4-8.7c-30.2-17.2-48.9-58.5-55.9-122.8
				c1.8,1,3.6,2.1,5.3,3.2c7.1,60.4,24.9,99.1,53,115.2c14.7,8.4,30,8.9,41.9,7.1C596.1,178.9,597,180.5,598,182z"/>
			<path class="st0" d="M770.9,193.5c-1.8,0.6-3.6,1.1-5.4,1.5c-13-13.6-27.2-41.1-30.6-96.3c-1.3-21-5.1-38.6-10.3-53.1
				c2.1,1,4.2,2,6.2,3c4.5,14.1,7.8,30.6,8.9,49.8C743.3,155.1,758,181.4,770.9,193.5z"/>
		</g>
		<ellipse class="st1" cx="558.2" cy="833.6" rx="201" ry="20.2"/>
	</g>
	<g>
		<g>
			<g>
				<linearGradient id="SVGID_1_" gradientUnits="userSpaceOnUse" x1="397.5405" y1="395.9633" x2="403.3046" y2="340.792">
					<stop  offset="0" style="stop-color:#3855E1"/>
					<stop  offset="1" style="stop-color:#5C7EF7"/>
				</linearGradient>
				<path class="st2" d="M318,352.8c0,0,3.5,2.4,9.8,6.1c20.6,12,71.2,37.6,126.5,37.3c1.8,0,3.5,0,5.3-0.1c2-0.1,4-0.2,5.9-0.3
					c5.3-0.4,10.6-1,16-2l6.9-53.3l-18.4,0.9l-5,0.2l-3,0.1l-48.7,2.4l-73.6-23.4l-10.5-3.4C329.2,317.4,316,326.6,318,352.8z"/>
				<path class="st3" d="M318,352.8c0,0,3.5,2.4,9.8,6.1c0.7-14.5,6.9-28.7,11.9-38.1l-10.5-3.4C329.2,317.4,316,326.6,318,352.8z"
					/>
				<path class="st4" d="M459.6,396c2-0.1,4-0.2,5.9-0.3c5.3-0.4,10.6-1,16-2l6.9-53.3l-18.4,0.9l-5,0.2c-1.4,5.3-2.5,11-3.5,17.2
					C459.5,372.1,459,384.5,459.6,396z"/>
				<g>
					
						<rect x="308.3" y="303.4" transform="matrix(0.9874 -0.1581 0.1581 0.9874 -50.7094 58.3698)" class="st5" width="66.7" height="89.1"/>
					<rect x="308.3" y="303.4" class="st6" width="66.7" height="89.1"/>
					<g>
						<path class="st7" d="M330.3,322.2c0,3.7-3,6.6-6.6,6.6c-3.7,0-6.6-3-6.6-6.6c0-3.7,3-6.6,6.6-6.6
							C327.3,315.6,330.3,318.6,330.3,322.2z"/>
						<path class="st5" d="M356.3,343.3h-37.4c-1.1,0-2-0.9-2-2l0,0c0-1.1,0.9-2,2-2h37.4c1.1,0,2,0.9,2,2l0,0
							C358.3,342.4,357.4,343.3,356.3,343.3z"/>
						<path class="st5" d="M365,353.6h-46.1c-1.1,0-2-0.9-2-2l0,0c0-1.1,0.9-2,2-2H365c1.1,0,2,0.9,2,2l0,0
							C367,352.7,366.1,353.6,365,353.6z"/>
						<path class="st5" d="M365,363.1h-46.1c-1.1,0-2-0.9-2-2l0,0c0-1.1,0.9-2,2-2H365c1.1,0,2,0.9,2,2l0,0
							C367,362.3,366.1,363.1,365,363.1z"/>
						<path class="st5" d="M365,372.1h-46.1c-1.1,0-2-0.9-2-2l0,0c0-1.1,0.9-2,2-2H365c1.1,0,2,0.9,2,2l0,0
							C367,371.2,366.1,372.1,365,372.1z"/>
					</g>
				</g>
				<path class="st8" d="M306.1,337c0,0,14.3-1.5,14.7,2.4c0.4,3.9-8.6,4.9-8.6,4.9s13.2,0.7,13.6,3.7c0.4,2.9-13.6,5.6-13.6,5.6
					s11.2-0.1,11.5,2.8c0.3,2.9-11.3,4.8-11.3,4.8s8.9,0.4,9.1,2.9c0.2,2.5-14.4,7-17.3,4.1c-2.9-2.9,1-8.2-2.3-11.4
					c-3.3-3.2-3.3-8.3-1.4-10.6C302.3,343.9,296.1,337.1,306.1,337z"/>
			</g>
			<g>
				<g>
					<path class="st9" d="M387,592.2l-38.5-13.1l4.5-13.2c1.7-5.1,7.2-7.8,12.3-6l20.2,6.9c5.1,1.7,7.8,7.2,6,12.3L387,592.2z
						 M355,575.9l28.8,9.8l2.9-8.4c0.8-2.4-0.5-5-2.9-5.8l-20.2-6.9c-2.4-0.8-5,0.5-5.8,2.9L355,575.9z"/>
					<path class="st9" d="M388,673.2l-96.2-32.8c-3.7-1.3-5.7-5.3-4.5-9.1l20-58.5l109.7,37.4l-20,58.5
						C395.8,672.5,391.8,674.5,388,673.2z"/>
					<path class="st10" d="M409.8,617.9l-52.3-6.2c-1.8-0.2-3.6-0.8-5.2-1.8l-45.1-27c-2.3-1.4-3.3-4.1-2.4-6.7l4.3-12.7
						c1-2.9,4.2-4.5,7.2-3.5l100.4,34.2c2.9,1,4.5,4.2,3.5,7.2l-4.3,12.7C414.9,616.6,412.4,618.2,409.8,617.9z"/>
				</g>
				<path class="st8" d="M393.2,545.5c0,0,7.2,19.8,3.2,22.7c-4,2.9-11.4-8-13.7-3.9c-2.3,4.2,5.2,12-5.1,12.7
					c-10.3,0.6-19.6-7.3-18.5-18.2c1.1-11,9.9-17.8,9.9-21.1l2.1-6.9l23.8,8L393.2,545.5z"/>
				<linearGradient id="SVGID_2_" gradientUnits="userSpaceOnUse" x1="441.6346" y1="487.0469" x2="402.1089" y2="440.9335">
					<stop  offset="0" style="stop-color:#3855E1"/>
					<stop  offset="1" style="stop-color:#5C7EF7"/>
				</linearGradient>
				<path class="st11" d="M367,537.1l28.7,9.2l6.1-12.7l0.1-0.2l28.5-59.6l30.1-7.4l12.9-3.2l2.1-0.5l15.3-3.8l12.6-3.1l-15.9-52.3
					c0,0-5.4,0.8-13.8,3.1c-3,0.8-6.4,1.8-10,3c-0.9,0.3-1.9,0.6-2.9,1c-2,0.7-4.1,1.5-6.3,2.3c-16,6.2-35,16-50.4,31.2
					c-23,22.6-32,58.3-35.3,78.3c0,0.3-0.1,0.5-0.1,0.8C367.3,531.7,367,537.1,367,537.1z"/>
				<path class="st4" d="M463.8,409.7c-0.9,0.3-1.9,0.6-2.9,1c2.8,22.1,9.1,39.9,14.7,52.1l15.3-3.8l12.6-3.1l-15.9-52.3
					c0,0-5.4,0.8-13.8,3.1C470.8,407.5,467.4,408.5,463.8,409.7z"/>
				<path class="st12" d="M368.7,523.2c-1.4,8.4-1.7,13.9-1.7,13.9l28.7,9.2l6.1-12.7l0.1-0.2C386.2,530.8,374.9,526.2,368.7,523.2z
					"/>
			</g>
			<g>
				<g>
					<path class="st13" d="M841.6,347.2l-31.4,6.5c-1.3,0.3-2.5-0.6-2.8-1.8l-12.8-61.6c-0.3-1.3,0.6-2.5,1.8-2.8l31.4-6.5
						c1.3-0.3,2.5,0.6,2.8,1.8l12.8,61.6C843.7,345.7,842.9,347,841.6,347.2z"/>
					<path class="st14" d="M837,335.9l-27,5.6l-10-48.1c-0.2-0.9,0.4-1.8,1.3-1.9l23.8-4.9c0.9-0.2,1.8,0.4,1.9,1.3L837,335.9z"/>
				</g>
				<path class="st8" d="M784.3,345l6.6-2.3c0,0,5.5,2.9,14.3-1.2l-5.4-25.8c0,0,9.2-6.4,9.1-10.3c-0.2-3.9-18.2-2.9-25.5,14.7
					l-8,3.4L784.3,345z"/>
				<linearGradient id="SVGID_3_" gradientUnits="userSpaceOnUse" x1="707.2202" y1="394.8758" x2="701.456" y2="344.6452">
					<stop  offset="0" style="stop-color:#3855E1"/>
					<stop  offset="1" style="stop-color:#5C7EF7"/>
				</linearGradient>
				<path class="st15" d="M786.3,352.8c0,0-3.5,2.4-9.8,6.1c-20.6,12-71.2,37.6-126.5,37.3c-1.8,0-3.5,0-5.3-0.1
					c-2-0.1-4-0.2-5.9-0.3c-5.3-0.4-10.6-1-16-2l-6.9-53.3l18.4,0.9l5,0.2l3,0.1l48.7,2.4l73.6-23.4l10.5-3.4
					C775.1,317.4,788.3,326.6,786.3,352.8z"/>
				<path class="st4" d="M644.7,396c-2-0.1-4-0.2-5.9-0.3c-5.3-0.4-10.6-1-16-2l-6.9-53.3l18.4,0.9l5,0.2c1.4,5.3,2.5,11,3.5,17.2
					C644.8,372.1,645.3,384.5,644.7,396z"/>
				<path class="st12" d="M775.1,317.4l-10.5,3.4c5,9.4,11.2,23.6,11.9,38.1c6.3-3.7,9.8-6.1,9.8-6.1
					C788.3,326.6,775.1,317.4,775.1,317.4z"/>
			</g>
			<g>
				<g>
					<path class="st16" d="M744.7,558.2L744.7,558.2c0.7,1.6-0.1,3.5-1.7,4.2l-33.6,14.3l-2.5-5.9l33.6-14.3
						C742.1,555.9,744,556.6,744.7,558.2z"/>
					<path class="st5" d="M667.2,591.2c5,11.7,18.5,17.2,30.3,12.2c11.7-5,17.2-18.5,12.2-30.3c-5-11.7-18.5-17.2-30.2-12.2
						C667.7,566,662.3,579.5,667.2,591.2z M705.5,574.9c4,9.4-0.4,20.3-9.8,24.3s-20.3-0.3-24.3-9.8c-4-9.4,0.4-20.3,9.8-24.3
						C690.6,561.1,701.5,565.5,705.5,574.9z"/>
				</g>
				<path class="st8" d="M710.7,542l2.3,6.9c0,0,0.6,7.6,0.3,11.4c-0.3,3.8-3.1,10.2,0.6,11.1c3.7,0.9,2.9,9,10.9,7.2
					c8-1.8,20.1-9.1,19.9-15.7c-0.3-6.5-9.9-18.3-9.9-18.3l-1.4-6.2L710.7,542z"/>
				<linearGradient id="SVGID_4_" gradientUnits="userSpaceOnUse" x1="663.7732" y1="485.6384" x2="699.7217" y2="444.073">
					<stop  offset="0" style="stop-color:#3855E1"/>
					<stop  offset="1" style="stop-color:#5C7EF7"/>
				</linearGradient>
				<path class="st17" d="M737.3,537.1l-28.7,9.2l-6.1-12.7l-0.1-0.2l-28.5-59.6l-30.1-7.4l-12.9-3.2l-2.1-0.5l-15.3-3.8l-12.6-3.1
					l15.9-52.3c0,0,5.4,0.8,13.8,3.1c3,0.8,6.4,1.8,10,3c0.9,0.3,1.9,0.6,2.9,1c2,0.7,4.1,1.5,6.3,2.3c16,6.2,35,16,50.4,31.2
					c23,22.6,32,58.3,35.3,78.3c0,0.3,0.1,0.5,0.1,0.8C737,531.7,737.3,537.1,737.3,537.1z"/>
				<path class="st4" d="M640.5,409.7c0.9,0.3,1.9,0.6,2.9,1c-2.8,22.1-9.1,39.9-14.7,52.1l-15.3-3.8l-12.6-3.1l15.9-52.3
					c0,0,5.4,0.8,13.8,3.1C633.5,407.5,636.9,408.5,640.5,409.7z"/>
				<path class="st12" d="M702.4,533.4l0.1,0.2l6.1,12.7l28.7-9.2c0,0-0.3-5.4-1.7-13.9C729.4,526.2,718.1,530.8,702.4,533.4z"/>
			</g>
			<g>
				<path class="st18" d="M454.4,157c0,0-12.7-5.6-13.8-10.2c-1-4.7-2.8-15.4-6.5-16.1c-3.6-0.7-1.5,16.6-1.5,16.6s-1-16.4-5.9-18.1
					c-4.9-1.7-0.8,20.3-1.3,19.6c-0.5-0.7-2.8-16.7-5.5-16.4c-2.6,0.3-3.5,16.3,0.2,24.1c3.7,7.8,4.9,14.8,4.9,14.8l23,1.5
					L454.4,157z"/>
				<path class="st8" d="M449.6,172.6c0,0,11.2-6.7,14.3-22.3c2.1-10.5-7.7-1.6-10.9,5.9c0,0-16.7-1-19.6,15.3L449.6,172.6z"/>
				<linearGradient id="SVGID_5_" gradientUnits="userSpaceOnUse" x1="424.9484" y1="276.0467" x2="457.8864" y2="252.9901">
					<stop  offset="0" style="stop-color:#3855E1"/>
					<stop  offset="1" style="stop-color:#5C7EF7"/>
				</linearGradient>
				<path class="st19" d="M426.1,270.5c11,22.9,29.2,40.6,43.5,52c0.3,0.2,0.6,0.5,0.9,0.7c0.1,0.1,0.2,0.2,0.3,0.3
					c11.4,8.8,20,13.5,20,13.5l32.7-43.8l-10.8-7.2l-4.7-3.2l-2.8-1.8l-44.4-29.4l-6.6-66l-1.4-13.9l-30.2-1.1c0,0-1.6,5.5-3.2,14.5
					C415.8,204.8,412.1,241.4,426.1,270.5z"/>
				<path class="st4" d="M490.9,337l32.7-43.8l-10.8-7.2l-4.7-3.2l-2.8-1.8c-9.4,5.3-24,17.1-34.3,42.5
					C482.3,332.3,490.9,337,490.9,337z"/>
				<path class="st12" d="M419.5,184.9c13.4-1.2,25.9-0.4,34.8,0.6l-1.4-13.9l-30.2-1.1C422.7,170.5,421.1,176,419.5,184.9z"/>
				<g>
					<g>
						<path class="st7" d="M462.1,80.9c0-10.2-8.3-18.4-18.4-18.4c-10.2,0-18.5,8.3-18.4,18.5c0,5.1,2.1,9.6,5.4,13
							c2.6,2.6,4.5,5.8,5.4,9.3l1.5,5.5h12.1l1.4-5.2c1-3.6,2.9-6.9,5.6-9.5C460,90.7,462.1,86,462.1,80.9z"/>
						<g>
							<path class="st20" d="M439.5,85.1c-1.3,0-2.4,1.1-2.4,2.4s1.1,2.4,2.4,2.4c0.5,0,1-0.2,1.4-0.4v19.3h1V87.5
								C441.9,86.1,440.8,85.1,439.5,85.1z M439.5,88.8c-0.8,0-1.4-0.6-1.4-1.4c0-0.8,0.6-1.4,1.4-1.4s1.4,0.6,1.4,1.4
								C440.9,88.2,440.3,88.8,439.5,88.8z"/>
							<path class="st20" d="M446.6,87.2c-1.3,0-2.4,1.1-2.4,2.4l-0.1,19.2h1l0.1-17.2c0.4,0.3,0.9,0.4,1.4,0.4
								c1.3,0,2.4-1.1,2.4-2.4C449,88.2,448,87.2,446.6,87.2z M446.6,90.9c-0.8,0-1.4-0.6-1.4-1.4c0-0.8,0.6-1.4,1.4-1.4
								c0.8,0,1.4,0.6,1.4,1.4C448,90.3,447.4,90.9,446.6,90.9z"/>
						</g>
						<path class="st21" d="M443.6,115.6L443.6,115.6c-3.5,0-6.3-2.8-6.3-6.3v-1.5h12.6v1.5C449.9,112.8,447.1,115.6,443.6,115.6z"
							/>
						<path class="st22" d="M449.9,110.8h-12.7c-0.3,0-0.5-0.2-0.5-0.5l0,0c0-0.3,0.2-0.5,0.5-0.5h12.7c0.3,0,0.5,0.2,0.5,0.5l0,0
							C450.4,110.6,450.2,110.8,449.9,110.8z"/>
						<path class="st22" d="M450,112.8h-12.7c-0.3,0-0.5-0.2-0.5-0.5l0,0c0-0.3,0.2-0.5,0.5-0.5H450c0.3,0,0.5,0.2,0.5,0.5l0,0
							C450.5,112.6,450.3,112.8,450,112.8z"/>
					</g>
					<path class="st7" d="M421.3,80.1h-4.8c-0.5,0-0.9-0.4-0.9-0.9l0,0c0-0.5,0.4-0.9,0.9-0.9h4.8c0.5,0,0.9,0.4,0.9,0.9l0,0
						C422.2,79.7,421.8,80.1,421.3,80.1z"/>
					<path class="st7" d="M422.8,71.4l-4.3-2.2c-0.5-0.2-0.6-0.8-0.4-1.3l0,0c0.2-0.5,0.8-0.6,1.3-0.4l4.3,2.2
						c0.5,0.2,0.6,0.8,0.4,1.3l0,0C423.8,71.5,423.2,71.7,422.8,71.4z"/>
					<path class="st7" d="M423.1,86.8l-4.3,2.2c-0.5,0.2-0.6,0.8-0.4,1.3l0,0c0.2,0.5,0.8,0.6,1.3,0.4l4.3-2.2
						c0.5-0.2,0.6-0.8,0.4-1.3l0,0C424.1,86.7,423.6,86.5,423.1,86.8z"/>
					<path class="st7" d="M428,64.2l-3.4-3.4c-0.4-0.4-0.4-1,0-1.3l0,0c0.4-0.4,1-0.4,1.3,0l3.4,3.4c0.4,0.4,0.4,1,0,1.3l0,0
						C429,64.6,428.4,64.6,428,64.2z"/>
					<path class="st7" d="M433.9,59.7l-1.7-4.5c-0.2-0.5,0.1-1,0.6-1.2l0,0c0.5-0.2,1,0.1,1.2,0.6l1.7,4.5c0.2,0.5-0.1,1-0.6,1.2
						l0,0C434.6,60.4,434.1,60.2,433.9,59.7z"/>
					<path class="st7" d="M466.3,79.5h4.8c0.5,0,0.9-0.4,0.9-0.9l0,0c0-0.5-0.4-0.9-0.9-0.9h-4.8c-0.5,0-0.9,0.4-0.9,0.9l0,0
						C465.3,79,465.8,79.5,466.3,79.5z"/>
					<path class="st7" d="M464.8,70.8l4.3-2.2c0.5-0.2,0.6-0.8,0.4-1.3l0,0c-0.2-0.5-0.8-0.6-1.3-0.4l-4.3,2.2
						c-0.5,0.2-0.6,0.8-0.4,1.3l0,0C463.8,70.9,464.3,71,464.8,70.8z"/>
					<path class="st7" d="M464.5,86.1l4.3,2.2c0.5,0.2,0.6,0.8,0.4,1.3l0,0c-0.2,0.5-0.8,0.6-1.3,0.4l-4.3-2.2
						c-0.5-0.2-0.6-0.8-0.4-1.3l0,0C463.5,86.1,464,85.9,464.5,86.1z"/>
					<path class="st7" d="M459.6,63.6l3.4-3.4c0.4-0.4,0.4-1,0-1.3l0,0c-0.4-0.4-1-0.4-1.3,0l-3.4,3.4c-0.4,0.4-0.4,1,0,1.3l0,0
						C458.6,64,459.2,64,459.6,63.6z"/>
					<path class="st7" d="M453.6,59.1l1.7-4.5c0.2-0.5-0.1-1-0.6-1.2l0,0c-0.5-0.2-1,0.1-1.2,0.6l-1.7,4.5c-0.2,0.5,0.1,1,0.6,1.2
						l0,0C452.9,59.8,453.5,59.5,453.6,59.1z"/>
					<path class="st7" d="M442.8,57.6v-4.8c0-0.5,0.4-0.9,0.9-0.9l0,0c0.5,0,0.9,0.4,0.9,0.9v4.8c0,0.5-0.4,0.9-0.9,0.9l0,0
						C443.2,58.6,442.8,58.1,442.8,57.6z"/>
				</g>
			</g>
			<g>
				<path class="st18" d="M650.5,156.4c0,0,12.7-5.6,13.8-10.2c1-4.7,2.8-15.4,6.5-16.1c3.6-0.7,1.5,16.6,1.5,16.6s1-16.4,5.9-18.1
					c4.9-1.7,0.8,20.3,1.3,19.6c0.5-0.7,2.8-16.7,5.5-16.4c2.6,0.3,3.5,16.3-0.2,24.1c-3.7,7.8-4.9,14.8-4.9,14.8l-23,1.5
					L650.5,156.4z"/>
				<path class="st8" d="M655.3,172c0,0-11.2-6.7-14.3-22.3c-2.1-10.5,7.7-1.6,10.9,5.9c0,0,16.7-1,19.6,15.3L655.3,172z"/>
				<linearGradient id="SVGID_6_" gradientUnits="userSpaceOnUse" x1="678.2173" y1="272.4042" x2="645.691" y2="252.6413">
					<stop  offset="0" style="stop-color:#3855E1"/>
					<stop  offset="1" style="stop-color:#5C7EF7"/>
				</linearGradient>
				<path class="st23" d="M678.2,270.5c-11,22.9-29.2,40.6-43.5,52c-0.3,0.2-0.6,0.5-0.9,0.7c-0.1,0.1-0.2,0.2-0.3,0.3
					c-11.4,8.8-20,13.5-20,13.5l-32.7-43.8l10.8-7.2l4.7-3.2l2.8-1.8l44.4-29.4l6.6-66l1.4-13.9l30.2-1.1c0,0,1.6,5.5,3.2,14.5
					C688.5,204.8,692.2,241.4,678.2,270.5z"/>
				<path class="st4" d="M613.4,337l-32.7-43.8l10.8-7.2l4.7-3.2l2.8-1.8c9.4,5.3,24,17.1,34.3,42.5C622,332.3,613.4,337,613.4,337z
					"/>
				<path class="st12" d="M651.5,171.6l-1.4,13.9c8.9-1.1,21.4-1.9,34.8-0.6c-1.6-8.9-3.2-14.4-3.2-14.4L651.5,171.6z"/>
				<g>
					<circle class="st24" cx="656.1" cy="87.2" r="19.9"/>
					<g>
						<path class="st7" d="M656.1,64.8c-12.4,0-22.4,10-22.4,22.4s10,22.4,22.4,22.4c12.4,0,22.4-10,22.4-22.4
							S668.4,64.8,656.1,64.8z M656.1,105.8c-1.9,0-3.8-0.3-5.5-0.8c-5.8-1.8-10.4-6.4-12.2-12.2c-0.5-1.7-0.8-3.6-0.8-5.5
							c0-0.6,0-1.3,0.1-1.9c0.8-7.5,6-13.7,13-15.9c1.7-0.5,3.6-0.8,5.5-0.8c10.3,0,18.6,8.3,18.6,18.6
							C674.7,97.4,666.3,105.8,656.1,105.8z"/>
						<g id="XMLID_16_">
							<path id="XMLID_17_" class="st7" d="M657.6,85.8v-5.4c2.6,0.4,2.6,2,2.6,2.6h3c0-3.1-2-5.2-5.5-5.6v-2.2h-3v2.2
								c-3.5,0.4-5.5,2.5-5.5,5.6s2,5.2,5.5,5.6V94c-2.6-0.4-2.6-2-2.6-2.6h-3c0,3.1,2,5.2,5.5,5.6v2.2h3V97
								c3.5-0.4,5.5-2.5,5.5-5.6C663.1,88.2,661.1,86.2,657.6,85.8z M652,82.9c0-0.6,0-2.2,2.6-2.6v5.2C652,85.1,652,83.5,652,82.9z
								 M657.6,94v-5.2c2.6,0.4,2.6,2,2.6,2.6C660.1,91.9,660.1,93.5,657.6,94z"/>
						</g>
					</g>
				</g>
			</g>
		</g>
		<g>
			<g>
				<g>
					<g>
						<path class="st25" d="M551.4,799.5h-46.9c0,0-13.4-165.5-8.6-310h59.3l8.7,125.2C563.8,614.7,552.6,735.9,551.4,799.5z"/>
						<path class="st13" d="M540.5,799.6c-5.3-74,9.8-227.9,10-229.5l2.5,0.2c-0.2,1.5-15.2,155.3-10,229L540.5,799.6z"/>
					</g>
					<g>
						<linearGradient id="SVGID_7_" gradientUnits="userSpaceOnUse" x1="516.454" y1="841.9959" x2="501.9398" y2="808.6442">
							<stop  offset="0" style="stop-color:#3855E1"/>
							<stop  offset="1" style="stop-color:#5C7EF7"/>
						</linearGradient>
						<path class="st26" d="M550.1,827.7c0,2.6-0.1,4.6-0.6,5.6c-2.3,4.5-78.9,3.5-83.4,3.3c-4-0.2-3.4-12.8,15.2-20.1
							c2.7-1.1,5.8-2,9.3-2.8c18.5-4.1,17.9-14.2,17.9-14.2l38.5,0.1C547,799.6,550,817.8,550.1,827.7z"/>
						<path class="st12" d="M550.1,827.7c0,2.6-0.1,4.6-0.6,5.6c-2.3,4.5-78.9,3.5-83.4,3.3c-4-0.2-3.4-12.8,15.2-20.1
							c4.5,0.9,9.4,4.4,11.3,14.8C492.7,831.3,532.5,831.8,550.1,827.7z"/>
					</g>
				</g>
				<g>
					<g>
						<linearGradient id="SVGID_8_" gradientUnits="userSpaceOnUse" x1="588.3264" y1="817.6924" x2="638.9967" y2="817.6924">
							<stop  offset="0" style="stop-color:#3855E1"/>
							<stop  offset="1" style="stop-color:#5C7EF7"/>
						</linearGradient>
						<path class="st27" d="M636.3,833.1c-5.8,2.6-25.7,3.4-37.5,2c-3.9-0.4-6.9-1.1-8.2-2c-5.3-3.7,0.3-33.5,0.3-33.5h28.4
							c0,0-0.6,11,6.8,14.4c2.4,1.1,5.2,3.2,7.5,5.6c0.1,0.1,0.3,0.3,0.4,0.4c1.7,1.7,2.5,3.1,2.5,3.1
							C639.4,827.2,640.3,831.4,636.3,833.1z"/>
						<path class="st12" d="M636.3,833.1c-5.8,2.6-25.7,3.4-37.5,2c-1.2-14.7,10.8-21.8,20.8-21.8c6.4,0,11.2,3.4,14,6.2
							c0.1,0.1,0.3,0.3,0.4,0.4c1.7,1.7,2.5,3.1,2.5,3.1C639.4,827.2,640.3,831.4,636.3,833.1z"/>
					</g>
					<g>
						<path class="st13" d="M541.7,495.4l40.5,304.1h43.9l-9.3-263.7c0,0,3.6-22.5,2.9-46.3L541.7,495.4z"/>
						<path class="st28" d="M615.2,799.5l-2.5-0.1c2.9-85-11.8-261.2-11.9-262.9c2.5-26.8-1.4-41.1-1.4-41.2l2.4-0.7
							c0.2,0.6,4,14.8,1.5,41.9C603.4,538.1,618.1,714.4,615.2,799.5z"/>
					</g>
				</g>
			</g>
			<g>
				<linearGradient id="SVGID_9_" gradientUnits="userSpaceOnUse" x1="477.9692" y1="408.589" x2="452.6481" y2="397.7812">
					<stop  offset="0" style="stop-color:#3855E1"/>
					<stop  offset="1" style="stop-color:#5C7EF7"/>
				</linearGradient>
				<path class="st29" d="M483.3,421.5c0,0-8.9,24.7-31.1,11.7c-22.2-13,3.5-70.1,3.5-70.1L483.3,421.5z"/>
				<path class="st8" d="M465.2,351c0,0-2.2-7.3,8.3-9.4c10.5-2.2,15,4.5,17.8,10.8L465.2,351z"/>
			</g>
			<g>
				<linearGradient id="SVGID_10_" gradientUnits="userSpaceOnUse" x1="563.9697" y1="486.5766" x2="547.5007" y2="296.3584">
					<stop  offset="0" style="stop-color:#3855E1"/>
					<stop  offset="1" style="stop-color:#5C7EF7"/>
				</linearGradient>
				<path class="st30" d="M621.4,400.1c-8,19.9-7.4,24.1-7.4,24.1l5.7,65.3c0,0-93.7,31.5-123.9,0l-3-52.7l-1.5-26.8l-0.3-1.4
					l-11.8-56.8l12.1,0.6c-2.1-4.8-5.2-9.8-11.1-11c3.8-9.5,12.6-29.2,23.2-36.9c14.2-10.3,43.3-22.8,86-10.6
					C631.9,306,629.4,380.2,621.4,400.1z"/>
				<path class="st31" d="M614,424.2c0,0-1.3,34.8-33,44.3c-31.7,9.5-57-28.4-62.4-31.4c-4.4-2.5-20.5-0.9-25.8-0.2l-1.5-26.8
					l-0.3-1.4l26.7-5l40.4,38.2L614,424.2z"/>
				<path class="st32" d="M585.9,361.4c0,0-33.9,10.5-80.7,0v46.2c0,0,51.1,10.8,88.9,0L585.9,361.4z"/>
				<path class="st4" d="M594.2,332.6c0,0-23.3,89.8-61.9,61.1l-10.8,12l53.8,33.4L594.2,332.6z"/>
			</g>
			<g>
				<linearGradient id="SVGID_11_" gradientUnits="userSpaceOnUse" x1="527.8119" y1="267.7626" x2="515.8719" y2="220.0022">
					<stop  offset="0" style="stop-color:#1F3A65"/>
					<stop  offset="1" style="stop-color:#294A7A"/>
				</linearGradient>
				<path class="st33" d="M563.5,280.1c0,0,12-17.9,6.9-38.3s-16.5-15.7-16.5-15.7s8.3-13.3-5.9-19.8c-14.2-6.5-24.2-1.2-14.1,2.5
					c0,0-20.8,0-32.8,13c-12,13-20.7-0.3-24.1,2.5c-3.4,2.8,2.9,11.8,8.3,12.7c0,0-13-2.8-13.9,0c-0.9,2.8,7.4,20.4,26.2,20.1
					c0,0-2.4,11.4,16.7,23.2C533.5,291.8,563.5,280.1,563.5,280.1z"/>
				<path class="st8" d="M570.4,296.2c0,0-0.7,2.7-2.2,6.4c-3.6,8.6-11.6,22.7-25.9,22.2c-4.9-0.2-6.5-4.3-7-9.5
					c-0.7-7.1,0.6-16.4-1.7-20.6l13.8-17.8l9.2-11.8l1.6-2C558.2,262.9,561.9,279.2,570.4,296.2z"/>
				<path class="st34" d="M568.1,302.5c-3.6,8.6-11.6,22.7-25.9,22.2c-4.9-0.2-6.5-4.3-7-9.5c-0.7-7.1,0.6-16.4-1.7-20.6l13.8-17.8
					l10.5-3.7c0,0-0.3,21.1-16.9,34.3c0,0,8.5,3,19.8-8.4C563.2,296.6,565.7,298.8,568.1,302.5z"/>
				<path class="st13" d="M564.7,283.3l1.5,3.7c0,0-4.8,19.8-21.5,25.6l1.6,18.8c0,0,24.5-11.9,29-37.7
					C575.3,293.8,570.4,283,564.7,283.3z"/>
				<path class="st13" d="M538.1,311.8l-2,19.4c0,0-14.6-10.5-9.8-32.2c0,0,5.5,3.4,9.7,2.6C536,301.7,533.9,305.5,538.1,311.8z"/>
				<path class="st8" d="M503.4,255.4c4.4,18.6,9.5,36.5,24.9,44.8c4,2.2,8.7,2,12.6-0.3c7.5-4.6,18.8-15.2,17.3-36.3
					c0,0,5.1,1.9,5.9-8.2c0.8-10.1-2.6-11.8-6.4-11c-3.7,0.8-3.4,14.3-3.4,14.3s-13.2-2.8-16.1-20.4c0,0-5.6,7.9-10.3,9.9
					c-4.8,2-2.9-6.9-2.9-6.9S521.5,254,503.4,255.4z"/>
			</g>
			<g>
				<g>
					<path class="st5" d="M511.4,421.8l-46.2,3.3c-1.5,0.1-2.9-1.1-3-2.6l-4.9-68.9c-0.1-1.5,1.1-2.9,2.6-3l46.2-3.3
						c1.5-0.1,2.9,1.1,3,2.6l4.9,68.9C514.1,420.3,512.9,421.7,511.4,421.8z"/>
					<path class="st35" d="M509,421.8l-46.2,3.3c-1.5,0.1-2.9-1.1-3-2.6l-4.9-68.9c-0.1-1.5,1.1-2.9,2.6-3l46.2-3.3
						c1.5-0.1,2.9,1.1,3,2.6l4.9,68.9C511.8,420.3,510.6,421.7,509,421.8z"/>
					<path class="st36" d="M486.9,386.1c0.3,4.4-1.9,8.1-4.9,8.3c-3,0.2-5.7-3.2-6-7.6c-0.3-4.4,1.9-8.1,4.9-8.3
						C483.9,378.3,486.6,381.7,486.9,386.1z"/>
				</g>
				<path class="st8" d="M525.4,390.9c0,0-2.6-16.1-14.6-16.8v6.5c0,0-7.9,1.9-12.6-3.6c-4.8-5.4-9.9-9.5-8.6,5.4
					c1.2,14.9,11.7,22.2,23,21.4l4.3,3.7l12.4-12.5L525.4,390.9z"/>
				<linearGradient id="SVGID_12_" gradientUnits="userSpaceOnUse" x1="577.235" y1="485.4276" x2="560.7661" y2="295.2099">
					<stop  offset="0" style="stop-color:#3855E1"/>
					<stop  offset="1" style="stop-color:#5C7EF7"/>
				</linearGradient>
				<path class="st37" d="M586.4,457.3c-29,11.2-55.2-20.1-67.2-37.6c-4.4-6.4-6.9-11-6.9-11l17.7-16.9l9.9,8.1l30.5,24.9
					c0,0,5.3-24.3,9.8-52.7c4.5-28.4,12-46.3,27.6-44C638.6,332.6,625.9,442.1,586.4,457.3z"/>
				<path class="st12" d="M539.8,399.9c-3.1,4.9-9.3,12.8-20.7,19.8c-4.4-6.4-6.9-11-6.9-11l17.7-16.9L539.8,399.9z"/>
			</g>
		</g>
	</g>
</g>
</svg>
